<svg width="200" height="81" viewBox="0 0 200 81" fill="none" xmlns="http://www.w3.org/2000/svg">
<path d="M38.7954 38.6689C38.7954 40.1041 38.8529 41.3651 38.9692 42.4512C39.105 43.5372 39.416 44.3812 39.9009 44.9824C40.3858 45.5835 41.1812 45.8838 42.2866 45.8838C43.3921 45.8837 44.1875 45.5926 44.6724 45.0107C45.1765 44.4095 45.4867 43.5655 45.603 42.4795C45.7194 41.3935 45.7778 40.1233 45.7778 38.6689V0.757812H53.5757V38.8135C53.5757 41.9169 53.1875 44.4878 52.4116 46.5244C51.6552 48.5414 50.4427 50.0539 48.7749 51.0625C47.1263 52.0517 44.973 52.5468 42.3159 52.5469C39.6586 52.5469 37.4957 52.0517 35.8276 51.0625C34.1596 50.0539 32.9375 48.5415 32.1616 46.5244C31.3858 44.4878 30.9976 41.9169 30.9976 38.8135V0.757812H38.7954V38.6689ZM13.8247 0.757812C16.4044 0.757812 18.4604 1.15594 19.9927 1.95117C21.525 2.72704 22.6312 3.9679 23.3101 5.6748C24.0083 7.3623 24.3569 9.5836 24.3569 12.3379V13.9092C24.3569 16.5663 24.0083 18.7582 23.3101 20.4844C22.6312 22.1912 21.4863 23.3836 19.8765 24.0625C21.2147 24.5086 22.2814 25.3139 23.0767 26.4775C23.8913 27.6219 24.4736 29.0283 24.8228 30.6963C25.1719 32.3449 25.3462 34.1585 25.3462 36.1367V37.4463C25.3268 40.8601 24.9297 43.6439 24.1538 45.7969C23.378 47.9304 22.1657 49.4922 20.5171 50.4814C18.8685 51.4706 16.7152 51.9648 14.0581 51.9648H2.73975V0.757812H13.8247ZM78.4458 7.53711H68.6704V21.1533H77.7476V27.9619H68.6704V51.9648H60.8726V0.757812H78.4458V7.53711ZM101.485 7.53711H91.7095V21.1533H100.787V27.9619H91.7095V51.9648H83.9116V0.757812H101.485V7.53711ZM10.5376 45.9131H13.3013C14.3293 45.9131 15.1443 45.6903 15.7456 45.2441C16.3662 44.7786 16.812 44.012 17.0835 42.9453C17.355 41.8785 17.4907 40.4237 17.4907 38.5811V34.4492C17.4907 31.9667 17.2481 30.163 16.7632 29.0381C16.2977 27.8937 15.3182 27.3213 13.8247 27.3213H10.5376V45.9131ZM10.5376 21.4736H13.4175C14.0962 21.4736 14.649 21.3765 15.0757 21.1826C15.5023 20.9887 15.8322 20.6588 16.0649 20.1934C16.2977 19.7084 16.4532 19.039 16.5308 18.1855C16.6277 17.3321 16.6763 16.2457 16.6763 14.9268V11.8428C16.6763 10.466 16.5504 9.4188 16.2983 8.70117C16.0462 7.98356 15.6579 7.49827 15.1343 7.24609C14.63 6.99394 13.9704 6.86817 13.1558 6.86816H10.5376V21.4736Z" fill="white"/>
<path d="M187.033 53.0807C184.872 53.0807 183.064 52.7467 181.61 52.0786C180.176 51.3909 179.036 50.3987 178.191 49.1019C177.366 47.7854 176.777 46.1939 176.423 44.3273C176.069 42.441 175.892 40.2993 175.892 37.9022V33.2749H183.379V38.4916C183.379 41.2817 183.614 43.2859 184.086 44.5041C184.557 45.7223 185.491 46.3314 186.886 46.3314C187.829 46.3314 188.536 46.1153 189.008 45.683C189.499 45.2311 189.823 44.5238 189.98 43.561C190.157 42.5785 190.246 41.3014 190.246 39.7295C190.246 37.7843 189.833 36.0061 189.008 34.3949C188.202 32.7837 186.974 31.1136 185.324 29.3845L181.492 25.4351C180.431 24.3348 179.468 23.1657 178.604 21.9278C177.759 20.69 177.081 19.3146 176.57 17.8016C176.079 16.269 175.833 14.5596 175.833 12.6734C175.833 9.9422 176.168 7.63349 176.836 5.74722C177.504 3.86095 178.633 2.43643 180.225 1.47365C181.816 0.491215 183.997 0 186.768 0C188.851 0 190.56 0.324202 191.896 0.972606C193.252 1.60136 194.303 2.53467 195.05 3.77253C195.816 4.99075 196.356 6.48404 196.671 8.25242C196.985 10.0011 197.142 12.0053 197.142 14.2649V17.4774H189.863V13.7639C189.863 12.192 189.774 10.8853 189.597 9.84395C189.44 8.80258 189.136 8.02646 188.684 7.51559C188.232 6.98508 187.574 6.71982 186.709 6.71982C185.884 6.71982 185.216 6.90649 184.705 7.27981C184.194 7.63349 183.821 8.19347 183.585 8.95977C183.369 9.70641 183.261 10.679 183.261 11.8776C183.261 12.9583 183.398 13.8916 183.673 14.6775C183.948 15.4635 184.371 16.2199 184.941 16.9469C185.51 17.6739 186.218 18.4893 187.063 19.3932L191.336 24.0204C193.38 26.2211 194.971 28.5101 196.111 30.8876C197.25 33.2651 197.82 35.9177 197.82 38.8453C197.82 41.9498 197.486 44.563 196.818 46.6851C196.15 48.7875 195.03 50.379 193.458 51.4597C191.886 52.5404 189.745 53.0807 187.033 53.0807Z" fill="#FACF00"/>
<path d="M159.421 52.4895V7.4549H153.349V0.617188H173.125V7.4549H167.29V52.4895H159.421Z" fill="#FACF00"/>
<path d="M133.13 52.4895V0.617188H150.519V7.42543H141.029V22.5156H150.048V29.1764H141.029V45.6813H150.873V52.4895H133.13Z" fill="#FACF00"/>
<path d="M104.123 52.4895V0.617188H115.352C117.965 0.617188 120.048 1.01998 121.6 1.82558C123.152 2.61152 124.272 3.86903 124.96 5.59811C125.667 7.30754 126.021 9.5573 126.021 12.3474V13.9389C126.021 16.6308 125.667 18.8511 124.96 20.5998C124.272 22.3289 123.113 23.5373 121.482 24.225C122.838 24.6769 123.919 25.4923 124.724 26.6712C125.549 27.8305 126.139 29.255 126.493 30.9448C126.846 32.6149 127.023 34.4521 127.023 36.4562V37.7825C127.003 41.2407 126.601 44.0603 125.815 46.2413C125.029 48.4026 123.801 49.9843 122.131 50.9864C120.46 51.9885 118.279 52.4895 115.588 52.4895H104.123ZM112.021 46.3591H114.821C115.863 46.3591 116.688 46.1332 117.297 45.6813C117.926 45.2097 118.378 44.4336 118.653 43.3529C118.928 42.2722 119.065 40.7986 119.065 38.932V34.7468C119.065 32.2318 118.82 30.4045 118.329 29.2649C117.857 28.1056 116.865 27.526 115.352 27.526H112.021V46.3591ZM112.021 21.6019H114.939C115.627 21.6019 116.187 21.5037 116.619 21.3072C117.051 21.1107 117.385 20.7767 117.621 20.3051C117.857 19.8139 118.014 19.136 118.093 18.2715C118.191 17.4069 118.24 16.3066 118.24 14.9705V11.8464C118.24 10.4513 118.112 9.39029 117.857 8.66329C117.602 7.93629 117.209 7.44508 116.678 7.18965C116.167 6.93422 115.499 6.8065 114.674 6.8065H112.021V21.6019Z" fill="#FACF00"/>
<g filter="url(#filter0_di_34_146)">
<path d="M16.9126 59.9663C18.9972 59.9663 20.4927 60.4376 21.3991 61.3803C22.3054 62.3229 22.7586 63.7187 22.7586 65.5677V67.5798C22.7586 69.4288 22.3054 70.8246 21.3991 71.7672C20.4927 72.7098 18.9972 73.1811 16.9126 73.1811H5.6555V78.4018C5.6555 78.8006 5.4561 79 5.0573 79H2.12068C1.70375 79 1.49529 78.8006 1.49529 78.4018V60.7821C1.49529 60.2382 1.7672 59.9663 2.31102 59.9663H16.9126ZM5.6555 69.5919H16.0696C16.9941 69.5919 17.6467 69.3925 18.0274 68.9937C18.4081 68.5949 18.5984 67.9877 18.5984 67.1719V66.1387C18.5984 65.3229 18.4081 64.7157 18.0274 64.3169C17.6467 63.9181 16.9941 63.7187 16.0696 63.7187H6.00899C5.77333 63.7187 5.6555 63.8274 5.6555 64.045V69.5919ZM34.811 59.9663C35.4998 59.9663 36.0799 60.1113 36.5512 60.4014C37.0225 60.6733 37.4848 61.2171 37.938 62.0328L46.9382 78.3746C47.0288 78.5559 47.0469 78.71 46.9926 78.8369C46.9563 78.9456 46.8294 79 46.6119 79H43.1586C42.8505 79 42.642 78.8822 42.5332 78.6465L40.6027 75.1389H27.8229L25.9468 78.6465C25.8199 78.8822 25.6114 79 25.3214 79H21.7865C21.5509 79 21.4059 78.9456 21.3515 78.8369C21.3152 78.71 21.3424 78.5559 21.4331 78.3746L30.3517 62.0328C30.8049 61.2171 31.249 60.6733 31.684 60.4014C32.1191 60.1113 32.6267 59.9663 33.2067 59.9663H34.811ZM29.536 71.9847H38.8896L34.5663 64.0178C34.4938 63.8909 34.3941 63.8274 34.2672 63.8274H34.104C33.9771 63.8274 33.8774 63.8909 33.8049 64.0178L29.536 71.9847ZM64.6561 59.9663C66.7407 59.9663 68.2362 60.4376 69.1426 61.3803C70.0489 62.3229 70.5021 63.7187 70.5021 65.5677V67.1176C70.5021 68.6765 70.1849 69.9092 69.5504 70.8155C68.916 71.7219 67.8827 72.302 66.4507 72.5557L71.1003 78.3202C71.1909 78.4109 71.2181 78.5468 71.1819 78.7281C71.1456 78.9094 71.0006 79 70.7468 79H67.2392C67.0035 79 66.8404 78.9728 66.7498 78.9184C66.6591 78.864 66.5685 78.7734 66.4778 78.6465L62.1817 72.9908H53.399V78.4018C53.399 78.8006 53.1996 79 52.8008 79H49.8642C49.4472 79 49.2388 78.8006 49.2388 78.4018V60.7821C49.2388 60.2382 49.5107 59.9663 50.0545 59.9663H64.6561ZM53.399 69.6735H63.8131C64.7376 69.6735 65.3902 69.4741 65.7709 69.0753C66.1516 68.6765 66.3419 68.0692 66.3419 67.2535V66.1115C66.3419 65.2958 66.1516 64.6885 65.7709 64.2897C65.3902 63.8909 64.7376 63.6915 63.8131 63.6915H53.7525C53.5168 63.6915 53.399 63.8003 53.399 64.0178V69.6735ZM94.2277 59.9663C94.6446 59.9663 94.8531 60.1657 94.8531 60.5645V63.2292C94.8531 63.6462 94.6446 63.8546 94.2277 63.8546H85.6897V78.4018C85.6897 78.8006 85.4903 79 85.0915 79H82.1277C81.7289 79 81.5295 78.8006 81.5295 78.4018V63.8546H72.9916C72.5746 63.8546 72.3662 63.6462 72.3662 63.2292V60.5645C72.3662 60.1657 72.5746 59.9663 72.9916 59.9663H94.2277ZM102.114 59.9663C102.549 59.9663 102.912 59.9845 103.202 60.0207C103.492 60.057 103.746 60.1385 103.963 60.2654C104.181 60.3742 104.389 60.5373 104.589 60.7549C104.788 60.9543 105.015 61.2262 105.269 61.5706L115.384 74.8398C115.456 74.9667 115.574 75.0301 115.737 75.0301H115.982C116.127 75.0301 116.199 74.9395 116.199 74.7582V60.5645C116.199 60.1657 116.399 59.9663 116.797 59.9663H119.653C120.051 59.9663 120.251 60.1657 120.251 60.5645V76.1721C120.251 77.2779 120.051 78.0302 119.653 78.429C119.254 78.8097 118.637 79 117.804 79H115.465C115.048 79 114.695 78.9819 114.405 78.9456C114.133 78.9094 113.888 78.8369 113.671 78.7281C113.453 78.6193 113.235 78.4652 113.018 78.2658C112.819 78.0483 112.583 77.7583 112.311 77.3957L102.169 64.1265C102.06 63.9997 101.942 63.9362 101.815 63.9362H101.571C101.426 63.9362 101.353 64.0268 101.353 64.2081V78.4018C101.353 78.8006 101.154 79 100.755 79H97.8998C97.4828 79 97.2744 78.8006 97.2744 78.4018V62.7942C97.2744 61.6884 97.4738 60.9452 97.8726 60.5645C98.2714 60.1657 98.8877 59.9663 99.7215 59.9663H102.114ZM143.215 59.9663C143.631 59.9663 143.84 60.1657 143.84 60.5645V63.1477C143.84 63.5465 143.631 63.7459 143.215 63.7459H131.332C130.625 63.7459 130.036 63.8093 129.565 63.9362C129.111 64.045 128.74 64.2444 128.45 64.5344C128.178 64.8063 127.988 65.187 127.879 65.6764C127.77 66.1477 127.716 66.7369 127.716 67.4438V67.7158H143.079C143.477 67.7158 143.677 67.9152 143.677 68.314V70.462C143.677 70.8608 143.477 71.0602 143.079 71.0602H127.716V71.5225C127.716 72.2295 127.77 72.8277 127.879 73.3171C127.988 73.7884 128.178 74.1691 128.45 74.4591C128.74 74.731 129.111 74.9304 129.565 75.0573C130.036 75.1661 130.625 75.2205 131.332 75.2205H143.215C143.631 75.2205 143.84 75.4199 143.84 75.8187V78.4018C143.84 78.8006 143.631 79 143.215 79H131.251C129.873 79 128.704 78.8731 127.743 78.6193C126.782 78.3655 125.994 77.9577 125.377 77.3957C124.779 76.8157 124.335 76.0724 124.045 75.1661C123.773 74.2416 123.637 73.1268 123.637 71.8216V67.1447C123.637 65.8396 123.773 64.7338 124.045 63.8274C124.335 62.9211 124.779 62.1869 125.377 61.625C125.994 61.0449 126.782 60.628 127.743 60.3742C128.704 60.1023 129.873 59.9663 131.251 59.9663H143.215ZM162.374 59.9663C164.458 59.9663 165.954 60.4376 166.86 61.3803C167.766 62.3229 168.22 63.7187 168.22 65.5677V67.1176C168.22 68.6765 167.902 69.9092 167.268 70.8155C166.633 71.7219 165.6 72.302 164.168 72.5557L168.818 78.3202C168.908 78.4109 168.936 78.5468 168.899 78.7281C168.863 78.9094 168.718 79 168.464 79H164.957C164.721 79 164.558 78.9728 164.467 78.9184C164.377 78.864 164.286 78.7734 164.195 78.6465L159.899 72.9908H151.116V78.4018C151.116 78.8006 150.917 79 150.518 79H147.582C147.165 79 146.956 78.8006 146.956 78.4018V60.7821C146.956 60.2382 147.228 59.9663 147.772 59.9663H162.374ZM151.116 69.6735H161.531C162.455 69.6735 163.108 69.4741 163.488 69.0753C163.869 68.6765 164.059 68.0692 164.059 67.2535V66.1115C164.059 65.2958 163.869 64.6885 163.488 64.2897C163.108 63.8909 162.455 63.6915 161.531 63.6915H151.47C151.234 63.6915 151.116 63.8003 151.116 64.0178V69.6735ZM190.177 59.9663C190.576 59.9663 190.775 60.1657 190.775 60.5645V63.1477C190.775 63.5465 190.576 63.7459 190.177 63.7459H176.554C176.029 63.7459 175.657 63.8818 175.44 64.1537C175.222 64.4256 175.113 64.7973 175.113 65.2686V66.1931C175.113 67.2082 175.585 67.7158 176.527 67.7158H186.724C188.301 67.7158 189.488 68.1236 190.286 68.9393C191.084 69.7369 191.482 70.888 191.482 72.3926V74.5679C191.482 75.8912 191.093 76.9607 190.313 77.7764C189.534 78.5921 188.319 79 186.67 79H171.606C171.189 79 170.98 78.8006 170.98 78.4018V75.8187C170.98 75.4199 171.189 75.2205 171.606 75.2205H185.881C186.407 75.2205 186.778 75.0845 186.996 74.8126C187.213 74.5407 187.322 74.1691 187.322 73.6978V72.5829C187.322 71.5678 186.851 71.0602 185.908 71.0602H175.712C174.134 71.0602 172.947 70.6614 172.15 69.8638C171.352 69.0481 170.953 67.888 170.953 66.3834V64.3985C170.953 63.0752 171.343 62.0057 172.122 61.1899C172.902 60.3742 174.116 59.9663 175.766 59.9663H190.177ZM197.775 75.1933C198.174 75.1933 198.373 75.3927 198.373 75.7915V78.4018C198.373 78.8006 198.174 79 197.775 79H195.11C194.693 79 194.485 78.8006 194.485 78.4018V75.7915C194.485 75.3927 194.693 75.1933 195.11 75.1933H197.775Z" fill="#FACF00"/>
</g>
<defs>
<filter id="filter0_di_34_146" x="0.000149369" y="58.4711" width="199.868" height="22.0241" filterUnits="userSpaceOnUse" color-interpolation-filters="sRGB">
<feFlood flood-opacity="0" result="BackgroundImageFix"/>
<feColorMatrix in="SourceAlpha" type="matrix" values="0 0 0 0 0 0 0 0 0 0 0 0 0 0 0 0 0 0 127 0" result="hardAlpha"/>
<feOffset/>
<feGaussianBlur stdDeviation="0.747606"/>
<feComposite in2="hardAlpha" operator="out"/>
<feColorMatrix type="matrix" values="0 0 0 0 0 0 0 0 0 0 0 0 0 0 0 0 0 0 1 0"/>
<feBlend mode="normal" in2="BackgroundImageFix" result="effect1_dropShadow_34_146"/>
<feBlend mode="normal" in="SourceGraphic" in2="effect1_dropShadow_34_146" result="shape"/>
<feColorMatrix in="SourceAlpha" type="matrix" values="0 0 0 0 0 0 0 0 0 0 0 0 0 0 0 0 0 0 127 0" result="hardAlpha"/>
<feOffset dy="-1.4162"/>
<feComposite in2="hardAlpha" operator="arithmetic" k2="-1" k3="1"/>
<feColorMatrix type="matrix" values="0 0 0 0 1 0 0 0 0 1 0 0 0 0 1 0 0 0 1 0"/>
<feBlend mode="normal" in2="shape" result="effect2_innerShadow_34_146"/>
</filter>
</defs>
</svg>
