<svg width="192" height="34" viewBox="0 0 192 34" fill="none" xmlns="http://www.w3.org/2000/svg">
<g clip-path="url(#clip0_19_35)">
<path d="M53.5949 0H52.1797V33.1636H53.5949V0Z" fill="#FFCC29"/>
<path d="M81.1974 0H79.6406V33.1636H81.1974V0Z" fill="#FFCC29"/>
<path d="M190.062 33.2108H191.619V0H190.062V33.2108Z" fill="#FFCC29"/>
<path d="M163.979 0H162.422V33.1636H163.979V0Z" fill="#FFCC29"/>
<path d="M108.783 0H107.273V33.1636H108.783V0Z" fill="#FFCC29"/>
<path d="M136.377 0H134.82V33.1636H136.377V0Z" fill="#FFCC29"/>
<path d="M65.1997 5.57031L58.3594 27.648H61.5201L63.124 22.0814H70.2002L71.8041 27.648H74.9176L68.1717 5.57031H65.1997ZM63.7844 19.6755L66.5677 10.0519H66.6621L69.3982 19.6755H63.7844Z" fill="white"/>
<path d="M39.5801 18.7813V16.4225H46.4204V24.4422C45.8071 25.4328 44.9579 26.282 43.9673 26.8481C42.6464 27.6501 41.1368 27.9331 39.6272 27.9331C37.5516 27.9331 35.4759 27.2727 34.0135 25.8102C32.5982 24.4422 31.8906 22.3665 31.8906 19.7719V13.309C31.8906 10.7616 32.5982 8.78027 33.9191 7.41221C35.2872 5.9498 37.2213 5.24219 39.2498 5.24219C41.184 5.24219 43.0238 5.66676 44.439 6.98764C45.7599 8.21418 46.3732 9.95963 46.4204 11.7523V11.8466H43.4484C43.4955 10.7144 43.1181 9.53506 42.3634 8.68592C41.6086 7.88396 40.4764 7.60091 39.297 7.60091C38.0705 7.60091 36.8911 8.11983 36.1363 9.11049C35.3344 10.1012 35.0041 11.4692 35.0041 13.3562V19.9606C35.0041 21.8476 35.4287 23.2628 36.2778 24.2535C37.127 25.2442 38.3535 25.7631 39.6744 25.7631C40.5235 25.7631 41.4199 25.6216 42.1275 25.197C42.6936 24.8668 43.071 24.3478 43.354 23.7817V18.7813H39.5801Z" fill="white"/>
<path d="M98.9135 5.57031H102.97V27.648H99.857V19.1566L100.14 10.6652H100.046L95.2339 27.648H93.1582L88.3464 10.6652H88.2992L88.5351 19.1566V27.648H85.4688V5.57031H89.4314L94.196 23.0249L98.9135 5.57031Z" fill="white"/>
<path d="M153.644 5.57031H156.71V27.648H153.644L145.294 11.2312H145.152V27.648H142.086V5.57031H145.152L153.502 21.987L153.644 21.9398V5.57031Z" fill="white"/>
<path d="M116.57 5.57031H126.996V7.97621H123.316V25.1949H126.996V27.648H116.57V25.1477H120.25V7.92904H116.57V5.57031Z" fill="white"/>
<path d="M1.41523 33.2108H24.6251C25.427 33.2108 26.0403 32.5975 26.0403 31.7956V1.41523C26.0403 0.613268 25.427 0 24.6251 0H1.41523C0.613268 0 0 0.613268 0 1.41523V31.7484C0 32.5504 0.660442 33.2108 1.41523 33.2108Z" fill="#FFCC29"/>
<path d="M20.0003 17.9772C19.4342 17.0337 18.4907 16.4204 17.4057 16.1846C18.302 15.8072 19.0568 15.1939 19.5286 14.3448C20.0003 13.4956 20.2362 12.505 20.2362 11.5615C20.2362 9.76884 19.6701 8.11773 18.302 7.07989C16.934 6.04206 15.33 5.57031 13.4431 5.57031H6.41406V27.6951H14.3394C16.0376 27.6951 17.7359 27.129 19.0096 25.9968C20.2362 24.959 20.8494 23.3079 20.8494 21.1851C20.8494 19.9113 20.5664 18.9207 20.0003 17.9772ZM10.5182 9.01405H12.6883C13.6318 9.01405 14.2922 9.20275 14.8583 9.76884C15.4244 10.3349 15.6131 11.1841 15.5659 11.986C15.5659 12.7408 15.4244 13.5428 14.8583 14.1089C14.3394 14.6278 13.7261 14.9109 12.877 14.9109H10.4711V9.01405H10.5182ZM15.5187 23.4966C14.9998 24.0627 14.1507 24.2042 13.3959 24.2042H10.5654V17.8828H13.7261C14.5281 17.8828 15.2829 18.1187 15.7074 18.732C16.1792 19.4396 16.2735 20.2887 16.2735 21.1379C16.2263 21.987 16.0848 22.8833 15.5187 23.4966Z" fill="white"/>
<path d="M177.471 18.7816V16.4228H184.311V24.4425C183.698 25.4332 182.849 26.2823 181.858 26.8484C180.537 27.6504 179.027 27.9334 177.518 27.9334C175.442 27.9334 173.367 27.273 171.904 25.8105C170.489 24.4425 169.781 22.3668 169.781 19.7722V13.2621C169.781 10.7147 170.489 8.7334 171.81 7.36534C173.178 5.90293 175.112 5.19531 177.14 5.19531C179.075 5.19531 180.914 5.61988 182.33 6.94077C183.651 8.1673 184.264 9.91276 184.311 11.7054V11.7997H181.339C181.386 10.6675 181.009 9.48819 180.254 8.63905C179.499 7.83708 178.367 7.55403 177.188 7.55403C175.961 7.55403 174.782 8.07295 174.027 9.06362C173.225 10.0543 172.895 11.4223 172.895 13.3093V19.9137C172.895 21.8007 173.319 23.216 174.168 24.2066C175.018 25.1973 176.244 25.7162 177.565 25.7162C178.414 25.7162 179.31 25.5747 180.018 25.1501C180.584 24.8199 180.962 24.301 181.245 23.7349V18.7816H177.471Z" fill="white"/>
</g>
<defs>
<clipPath id="clip0_19_35">
<rect width="192" height="33.4939" fill="white"/>
</clipPath>
</defs>
</svg>
