<svg width="146" height="49" viewBox="0 0 146 49" fill="none" xmlns="http://www.w3.org/2000/svg">
<path fill-rule="evenodd" clip-rule="evenodd" d="M144.067 5.1427C143.869 5.46656 143.55 5.69862 143.181 5.7881C142.978 5.82184 142.769 5.81505 142.569 5.76811C142.369 5.72118 142.179 5.63503 142.012 5.51463C141.618 5.27396 141.235 5.06612 140.885 4.8911C140.537 4.71697 140.175 4.5742 139.802 4.46448C139.422 4.35487 139.035 4.27442 138.643 4.22382C138.189 4.16814 137.732 4.14255 137.275 4.14725C136.4 4.13186 135.532 4.30341 134.728 4.65044C133.987 4.96748 133.33 5.45025 132.805 6.06158C132.25 6.69897 131.831 7.44359 131.575 8.24938C131.284 9.16338 131.144 10.1183 131.157 11.0771C131.142 12.1216 131.306 13.1611 131.639 14.151C131.922 14.9921 132.381 15.7637 132.983 16.4154C133.569 17.031 134.281 17.5124 135.069 17.8265C135.928 18.1546 136.841 18.3178 137.76 18.3079C138.314 18.3152 138.868 18.2564 139.41 18.1328C139.9 18.0186 140.379 17.8594 140.84 17.6569V14.3588H138.697C138.427 14.3739 138.16 14.2838 137.955 14.1073C137.866 14.025 137.796 13.925 137.749 13.8138C137.702 13.7026 137.679 13.5826 137.682 13.4619V10.6997H145.375V19.8612C144.304 20.6574 143.1 21.2591 141.82 21.6388C140.542 22.01 139.216 22.1942 137.885 22.1857C136.222 22.2051 134.57 21.9196 133.01 21.3434C131.614 20.8264 130.336 20.0362 129.249 19.0189C128.207 18.0304 127.384 16.8341 126.834 15.5074C126.257 14.1062 125.967 12.6034 125.981 11.0881C125.965 9.56252 126.24 8.04799 126.79 6.62494C127.303 5.30817 128.088 4.11379 129.091 3.11898C130.126 2.11136 131.359 1.32918 132.711 0.82178C134.228 0.256278 135.836 -0.0219381 137.454 0.00134988C138.308 -0.00111252 139.16 0.0721011 140 0.220131C140.75 0.356083 141.485 0.561153 142.198 0.832716C142.837 1.08168 143.451 1.38929 144.033 1.75159C144.563 2.09111 145.061 2.47931 145.519 2.91113L144.067 5.1427ZM117.267 33.9411C117.768 34.171 118.287 34.3611 118.818 34.5099C119.398 34.685 119.988 34.8819 120.596 35.0897C121.204 35.3048 121.797 35.5569 122.374 35.8445C122.946 36.1276 123.47 36.5006 123.925 36.9493C124.39 37.4183 124.761 37.9715 125.02 38.5792C125.311 39.3187 125.451 40.1092 125.43 40.9038C125.438 41.8659 125.26 42.8206 124.906 43.7151C124.57 44.5737 124.057 45.3523 123.402 46.0014C122.703 46.6736 121.873 47.195 120.964 47.5328C119.907 47.9199 118.788 48.1091 117.663 48.0907C116.969 48.0909 116.277 48.0213 115.597 47.8829C114.904 47.7425 114.225 47.545 113.565 47.2922C112.925 47.0441 112.308 46.7441 111.717 46.3952C111.171 46.0713 110.666 45.6819 110.214 45.2356L111.7 42.8837C111.827 42.7118 111.986 42.5668 112.17 42.4571C112.363 42.3447 112.582 42.2843 112.804 42.2821C113.124 42.2903 113.436 42.3889 113.702 42.5665C114.008 42.7525 114.347 42.9603 114.73 43.19C115.15 43.4388 115.593 43.6476 116.052 43.8136C116.617 44.0132 117.213 44.1096 117.812 44.098C118.57 44.1456 119.322 43.9334 119.944 43.4964C120.209 43.2572 120.415 42.9599 120.545 42.6277C120.676 42.2956 120.728 41.9376 120.697 41.582C120.715 41.1355 120.569 40.698 120.287 40.3513C119.983 40.0138 119.61 39.7452 119.193 39.5637C118.697 39.3367 118.181 39.1537 117.652 39.0168C117.072 38.8527 116.479 38.6777 115.875 38.4917C115.268 38.2965 114.677 38.0589 114.103 37.7807C113.529 37.5001 113.008 37.1226 112.562 36.6649C112.087 36.1669 111.715 35.5794 111.469 34.9365C111.173 34.1164 111.034 33.2482 111.059 32.3768C111.062 31.5423 111.236 30.7172 111.568 29.9519C111.901 29.1864 112.386 28.4967 112.993 27.9246C113.67 27.2915 114.465 26.7972 115.331 26.4698C116.345 26.0904 117.421 25.9048 118.503 25.9228C119.154 25.9235 119.804 25.9747 120.447 26.0759C121.058 26.1722 121.66 26.3237 122.244 26.5285C122.792 26.7263 123.323 26.9714 123.828 27.2614C124.303 27.5308 124.746 27.8519 125.151 28.2186L123.894 30.5705C123.772 30.7768 123.613 30.9585 123.424 31.1065C123.237 31.2322 123.014 31.2937 122.789 31.2815C122.531 31.2709 122.279 31.1957 122.056 31.0627C121.794 30.926 121.499 30.7564 121.159 30.5814C120.794 30.3899 120.414 30.2288 120.023 30.1001C119.55 29.9492 119.055 29.8753 118.558 29.8814C117.806 29.8212 117.056 30.0349 116.449 30.483C116.22 30.6865 116.041 30.9385 115.923 31.2205C115.804 31.5025 115.75 31.8074 115.765 32.1129C115.759 32.3115 115.792 32.5096 115.862 32.6954C115.932 32.8813 116.039 33.0514 116.175 33.1958C116.489 33.5089 116.861 33.7615 117.267 33.9411ZM119.44 21.7591C119.135 21.6024 118.868 21.3824 118.654 21.1137L108.422 8.16185C108.466 8.54474 108.488 8.92764 108.499 9.28863C108.51 9.64955 108.52 9.98871 108.52 10.3059V21.945H104.082V0.231069H106.728C106.911 0.228654 107.094 0.239623 107.275 0.263886C107.416 0.280173 107.555 0.317026 107.685 0.373277C107.809 0.431971 107.923 0.509461 108.023 0.602997C108.157 0.730037 108.281 0.867176 108.395 1.01321L118.715 14.0525C118.659 13.6424 118.626 13.2321 118.605 12.8383C118.584 12.4445 118.571 12.0726 118.571 11.7335V0.242009H123.042V21.945H120.413C120.079 21.9532 119.747 21.8898 119.44 21.7591ZM94.8456 0.231069H99.9048V21.945H94.8456V0.231069ZM108.814 30.04H99.9077V35.0993H106.728V38.835H99.9077V44.0091H108.816V47.8815H94.8456V26.1634H108.816L108.814 30.04ZM86.1994 9.46361C86.1994 9.1792 86.2102 8.86194 86.2216 8.52284C86.2324 8.18375 86.2653 7.83915 86.2982 7.49462L80.5384 18.6524C80.3831 18.9817 80.1311 19.2562 79.8169 19.44C79.5013 19.6222 79.1428 19.7166 78.7785 19.7135H78.095C77.7307 19.7204 77.3714 19.6257 77.0573 19.44C76.7431 19.2562 76.4912 18.9817 76.3351 18.6524L70.5691 7.46177C70.6018 7.82276 70.6237 8.1728 70.6456 8.51189C70.6675 8.85106 70.6784 9.16825 70.6784 9.45266V21.9341H66.2399V0.231069H70.0768C70.2955 0.231069 70.487 0.231069 70.6456 0.242009C70.7946 0.252073 70.9417 0.281491 71.0831 0.329521C71.2123 0.385223 71.3311 0.462954 71.4334 0.559241C71.5565 0.689059 71.6596 0.836538 71.7397 0.996801L77.3249 12.0124C77.5225 12.3953 77.7193 12.7782 77.8939 13.1938C78.0692 13.6095 78.2553 14.0142 78.4192 14.4409C78.5831 14.0033 78.7692 13.5767 78.9445 13.161C79.1191 12.7453 79.3274 12.3516 79.535 11.9687L85.0958 0.996801C85.1731 0.83487 85.2762 0.686967 85.4022 0.559241C85.4988 0.455803 85.619 0.377031 85.7521 0.329521C85.8924 0.276298 86.0406 0.246724 86.1901 0.242009C86.354 0.231069 86.5401 0.231069 86.7591 0.231069H90.6396V21.945H86.1994V9.46361ZM70.6456 26.1744C70.7946 26.1844 70.9417 26.2138 71.0831 26.2618C71.2123 26.3175 71.3311 26.3953 71.4334 26.4916C71.5565 26.6214 71.6596 26.7689 71.7397 26.9292L77.3249 37.9448C77.5225 38.3277 77.7193 38.7105 77.8939 39.1262C78.0692 39.5419 78.2553 39.9466 78.4192 40.3732C78.5831 39.9357 78.7692 39.5091 78.9445 39.0934C79.1191 38.6777 79.3274 38.2839 79.535 37.901L85.0987 26.9292C85.176 26.7672 85.2791 26.6193 85.405 26.4916C85.5016 26.3881 85.6219 26.3094 85.755 26.2618C85.8953 26.2086 86.0427 26.179 86.193 26.1744C86.3569 26.1634 86.543 26.1634 86.7613 26.1634H90.6424V47.8774H86.1994V35.396C86.1994 35.1116 86.2102 34.7943 86.2216 34.4552C86.2324 34.1161 86.2653 33.7715 86.2982 33.4269L80.5384 44.5848C80.3831 44.914 80.1311 45.1885 79.8169 45.3724C79.5013 45.5544 79.1428 45.6489 78.7785 45.6459H78.095C77.7307 45.6527 77.3714 45.558 77.0573 45.3724C76.7431 45.1885 76.4912 44.914 76.3351 44.5848L70.5745 33.3942C70.6074 33.7552 70.6292 34.1052 70.6511 34.4443C70.673 34.7834 70.6839 35.1006 70.6839 35.3851V47.8665H66.2399V26.1634H70.0768C70.2955 26.1634 70.4815 26.1634 70.6456 26.1744ZM58.8287 47.5602C58.5581 47.3568 58.3466 47.085 58.2161 46.7726L56.9377 42.9876H48.6786L47.4111 46.7835C47.2826 47.0819 47.0791 47.3419 46.8204 47.5383C46.5191 47.7664 46.1495 47.886 45.7716 47.8774H41.8418L50.2361 26.1634H55.3952L63.7896 47.8665H59.8912C59.5128 47.8859 59.1387 47.7782 58.8287 47.5602ZM53.7899 33.6389C53.6368 33.267 53.4836 32.8185 53.3086 32.3043C53.1336 31.7902 52.9695 31.2432 52.8054 30.6416C52.6523 31.2432 52.4991 31.8121 52.3241 32.3262C52.1491 32.8404 51.9959 33.2834 51.8428 33.6717L49.8642 39.5788H55.7999L53.7899 33.6389ZM54.4244 21.6538C53.9345 21.7083 53.4419 21.7338 52.949 21.7304C52.4033 21.7296 51.8587 21.6839 51.3205 21.5936C49.4276 21.2793 47.6537 20.4634 46.1832 19.2308L46.2817 19.3183C45.2469 18.4946 44.2616 17.6106 43.3308 16.6711C43.484 16.5179 45.222 14.5927 45.9877 13.7613C46.7643 14.445 47.5506 15.2654 48.0975 15.6975C48.8431 16.3825 49.7012 16.9339 50.634 17.3274C51.3552 17.6911 52.1509 17.882 52.9586 17.8853H53.1117C54.7439 17.8869 56.325 17.3158 57.5795 16.2717C58.834 15.2275 59.6825 13.7764 59.9773 12.1711L63.5407 13.8447C62.9595 15.8998 61.7838 17.7372 60.1613 19.126C58.5387 20.5147 56.5418 21.3927 54.4217 21.6497L54.4244 21.6538ZM57.5065 5.46403C56.1025 4.3202 54.3081 3.76837 52.504 3.92563C50.7 4.08288 49.0281 4.93684 47.8432 6.30634C46.2024 8.24258 44.608 10.3866 43.1326 12.1861C41.6572 13.9855 39.4708 16.1241 39.3832 16.2007L38.9457 16.6109C38.9128 16.6437 38.8691 16.6765 38.8362 16.7094C38.7488 16.775 38.6722 16.8461 38.5847 16.9282C38.3878 17.1031 38.1909 17.2672 38.0049 17.4313C37.9494 17.4855 37.8909 17.5366 37.8299 17.5845C37.5783 17.7923 37.3376 17.9947 37.097 18.1861C37.0641 18.208 37.0423 18.2299 37.0095 18.2517C36.9716 18.2872 36.9314 18.3201 36.8891 18.3502C36.725 18.4705 36.5609 18.6018 36.3969 18.7222C36.3203 18.7768 36.2601 18.8206 36.1891 18.8753C36.025 18.9956 35.8609 19.105 35.7077 19.2144C35.6311 19.2581 35.5546 19.3129 35.4889 19.3511C35.3249 19.4605 35.1717 19.559 35.0186 19.6574C34.9639 19.6903 34.8983 19.734 34.8435 19.7668C34.4333 20.0294 34.0122 20.2591 33.6307 20.4669C33.576 20.4888 33.5322 20.5216 33.4775 20.5435C33.3408 20.6201 33.1931 20.6802 33.0673 20.7513C33.0113 20.7848 32.9527 20.8141 32.8923 20.8389C32.7556 20.9045 32.6297 20.9592 32.5094 21.0139C32.4766 21.0248 32.4438 21.0467 32.411 21.0577C32.0127 21.256 31.5953 21.4136 31.1653 21.528C30.7264 21.6387 30.2811 21.7227 29.8321 21.7796C29.2899 21.8158 28.7461 21.8194 28.2036 21.7905C25.3868 21.6295 22.7433 20.378 20.8335 18.3013C18.9237 16.2245 17.8976 13.4857 17.9726 10.6653C18.0476 7.84495 19.2179 5.16457 21.2354 3.1923C23.253 1.22002 25.9592 0.110838 28.7806 0.0998011C30.3941 0.0896791 31.9908 0.427409 33.462 1.08999C34.9332 1.75257 36.2444 2.72444 37.3062 3.9394C37.4047 4.0488 38.88 5.60214 39.2301 6.06158C39.1645 6.13815 37.3828 8.23843 36.6389 9.03699C36.2287 8.52284 34.2665 6.41163 34.0258 6.18191C33.3074 5.43814 32.4387 4.85591 31.4778 4.47396C30.5167 4.09202 29.4854 3.91911 28.4524 3.96675C26.6746 4.08847 25.0104 4.88499 23.8005 6.19334C22.5907 7.5017 21.9265 9.22293 21.944 11.0048C21.9614 12.7868 22.6592 14.4947 23.8945 15.779C25.1298 17.0634 26.8093 17.8272 28.5891 17.914C29.1628 17.9341 29.7357 17.8565 30.2834 17.6843C30.9172 17.4804 31.5288 17.2129 32.1088 16.8858C32.2072 16.831 32.3057 16.7764 32.4151 16.7107C32.4588 16.6888 32.5026 16.656 32.5518 16.6341C32.6612 16.5685 32.7706 16.4975 32.8909 16.4263C32.9288 16.4069 32.9653 16.3849 33.0003 16.3607L33.3941 16.0982C33.4366 16.0766 33.4769 16.0509 33.5145 16.0216C33.6512 15.9231 33.7879 15.8246 33.9246 15.7262C33.9727 15.7012 34.0185 15.6719 34.0614 15.6387C34.1003 15.605 34.1414 15.5739 34.1844 15.5457C34.2829 15.4692 34.3923 15.3926 34.5017 15.305C34.5396 15.2696 34.5798 15.2367 34.622 15.2066C34.7752 15.0863 34.9393 14.955 35.1034 14.8237C35.1424 14.798 35.179 14.7687 35.2127 14.7362C35.3878 14.5995 35.5628 14.4409 35.7378 14.2878C35.7597 14.2659 35.7925 14.244 35.8144 14.2221C35.9511 14.1018 36.0988 13.9815 36.2246 13.8502C38.6955 11.4217 44.7024 4.08161 44.7721 3.98316V3.96675C45.7295 2.80586 46.9186 1.85746 48.2633 1.18216C49.608 0.506859 51.0788 0.119515 52.5818 0.0448769C54.0847 -0.0297611 55.5867 0.209949 56.9917 0.748687C58.3967 1.28743 59.674 2.11335 60.7417 3.17367L62.7203 1.77895L63.5079 10.1802L55.8505 6.65776L57.5065 5.46403ZM15.7727 12.4062C16.48 13.2448 16.8465 14.3184 16.7996 15.4145C16.8079 16.3034 16.6251 17.1839 16.2636 17.9961C15.8997 18.7971 15.3621 19.5071 14.6898 20.0745C13.9362 20.7012 13.0677 21.175 12.1328 21.4692C11.0112 21.8174 9.842 21.9871 8.66778 21.9724H0V0.231069H7.98C9.26838 0.20675 10.5547 0.34457 11.8087 0.641284C12.7392 0.858452 13.6165 1.2602 14.3889 1.8227C15.027 2.30093 15.5283 2.93845 15.8425 3.6714C16.158 4.44156 16.3143 5.26765 16.3019 6.09987C16.3047 6.58196 16.2332 7.06161 16.0899 7.52196C15.9442 7.97892 15.7224 8.4079 15.4336 8.79087C15.1112 9.21062 14.724 9.57619 14.2863 9.87385C13.7643 10.2295 13.1986 10.5162 12.6031 10.7271C13.806 10.9507 14.9119 11.5366 15.7727 12.4062ZM11.0512 5.40524C10.9324 5.08011 10.7284 4.79294 10.4604 4.57387C10.1589 4.35147 9.81202 4.19833 9.44451 4.12537C8.96235 4.02945 8.47161 3.98363 7.98 3.98863H5.02785V9.36514H7.6573C8.16121 9.36735 8.66434 9.32706 9.16146 9.24483C9.56382 9.1855 9.95022 9.04601 10.2978 8.8346C10.6112 8.638 10.8587 8.35237 11.0088 8.01421C11.1835 7.59932 11.2656 7.15137 11.2494 6.70151C11.2612 6.26105 11.1941 5.82203 11.0512 5.40524ZM11.6637 14.233C11.5603 13.9203 11.3753 13.6409 11.1277 13.4236C10.8317 13.1848 10.4874 13.0131 10.1186 12.9204C9.6054 12.7904 9.07672 12.7315 8.54747 12.7453H5.02785V18.1492H8.56937C9.12302 18.166 9.6751 18.0808 10.1979 17.8976C10.5778 17.7631 10.919 17.5378 11.192 17.2413C11.4266 16.9825 11.5954 16.6711 11.6843 16.3333C11.7734 15.9978 11.8194 15.6522 11.821 15.305C11.8226 14.9418 11.7696 14.5805 11.6637 14.233ZM23.1566 29.0404C24.1909 28.0329 25.4229 27.2507 26.7746 26.7432C28.2912 26.1778 29.8997 25.8995 31.5181 25.9228C32.372 25.9202 33.2245 25.9934 34.0655 26.1415C34.8153 26.2775 35.5509 26.4826 36.2629 26.7542C36.9022 27.0029 37.5169 27.3105 38.0992 27.673C38.6296 28.0125 39.1272 28.4007 39.5856 28.8325L38.1321 31.0532C37.9341 31.3769 37.616 31.6089 37.2474 31.6986C37.0441 31.7323 36.8362 31.7254 36.6356 31.6784C36.4349 31.6316 36.2455 31.5455 36.0783 31.4251C35.6845 31.1845 35.3016 30.9766 34.9529 30.8016C34.6058 30.6276 34.2438 30.4848 33.8713 30.375C33.4919 30.2654 33.1047 30.185 32.7132 30.1343C32.2595 30.0787 31.8028 30.0531 31.3458 30.0577C30.4705 30.0423 29.602 30.2139 28.7984 30.5609C28.0575 30.8779 27.3994 31.3607 26.8745 31.9721C26.319 32.6095 25.9001 33.3541 25.6438 34.1599C25.3497 35.0751 25.2056 36.0318 25.2172 36.9931C25.205 38.0376 25.3705 39.0766 25.7067 40.0656C25.9902 40.9066 26.4483 41.6783 27.0508 42.3299C27.6367 42.9457 28.349 43.4272 29.1388 43.7411C29.9967 44.0691 30.9087 44.2324 31.8271 44.2224C32.3823 44.2296 32.9363 44.1708 33.4775 44.0474C33.9686 43.9315 34.4479 43.7704 34.9092 43.5661V40.2748H32.7652C32.494 40.29 32.2275 40.1998 32.0213 40.0232C31.9328 39.941 31.8627 39.8409 31.8156 39.7297C31.7684 39.6185 31.7454 39.4985 31.7478 39.3778V36.6211H39.4434V45.7826C38.3717 46.5789 37.1683 47.1806 35.8882 47.5602C34.6097 47.9315 33.2842 48.1157 31.9529 48.1072C30.2902 48.1265 28.638 47.841 27.0782 47.2648C25.6826 46.7478 24.4043 45.9575 23.3179 44.9403C22.2766 43.9533 21.4543 42.7583 20.9045 41.433C20.3275 40.0317 20.0373 38.5289 20.0513 37.0136C20.0361 35.488 20.3108 33.9735 20.8607 32.5504C21.3717 31.2326 22.1539 30.0367 23.1566 29.0404Z" fill="white"/>
</svg>
