<svg width="192" height="42" viewBox="0 0 192 42" fill="none" xmlns="http://www.w3.org/2000/svg">
<mask id="mask0_19_51" style="mask-type:luminance" maskUnits="userSpaceOnUse" x="0" y="0" width="192" height="42">
<path d="M192 0H0V41.5135H192V0Z" fill="white"/>
</mask>
<g mask="url(#mask0_19_51)">
<mask id="mask1_19_51" style="mask-type:luminance" maskUnits="userSpaceOnUse" x="0" y="0" width="192" height="42">
<path d="M191.8 0H0V41.5135H191.8V0Z" fill="white"/>
</mask>
<g mask="url(#mask1_19_51)">
<path d="M46.5618 15.5083C46.53 15.4351 46.511 15.3621 46.4792 15.2858C44.5408 10.7703 37.1843 9.40069 28.7031 11.4662L27.3112 10.64C31.4867 8.92721 35.6464 8.03109 39.1323 8.27895C44.331 8.65075 46.8732 11.4662 46.5649 15.5083H46.5618ZM39.021 24.9905C33.5808 31.5746 23.7522 36.1347 17.0663 35.6613C10.39 35.1814 9.37628 29.4584 14.8197 22.8742C14.9245 22.7375 15.0453 22.6072 15.1565 22.4706L15.1724 30.7262C15.1375 32.8267 17.2634 33.8118 18.7886 32.9761L38.7859 21.3806C40.3493 20.4147 40.184 18.2633 38.7097 17.434L30.6034 12.9946C32.7928 12.3687 34.8964 12.0731 36.7649 12.2066C43.4477 12.6864 44.4518 18.4094 39.0179 24.9937L39.021 24.9905ZM13.5867 39.2043C7.45059 38.7658 5.00375 34.9177 6.59896 29.6776C6.58943 30.5515 6.73243 31.3872 7.07244 32.1657C9.47161 37.7712 20.2377 38.5339 31.1181 33.8785C31.3405 33.7832 31.563 33.6815 31.7855 33.5862C25.6747 37.3358 18.8713 39.5761 13.5836 39.2043H13.5867ZM20.6571 9.88688L34.0797 17.9297C35.0744 18.4953 35.1919 19.9697 34.137 20.6212L20.5777 28.4859C19.5417 29.0548 18.0895 28.378 18.1182 26.9447L18.0546 11.3295C18.1149 10.0267 19.4687 9.23863 20.6602 9.88688H20.6571ZM51.7287 12.7849C48.9164 6.21027 37.232 4.76124 24.5879 9.01618L18.9793 5.67324C17.2316 4.72629 15.236 5.8798 15.1406 7.80548L15.147 13.2329C4.24747 19.4454 -2.07299 28.3843 0.618526 34.673C3.73585 41.9403 17.7019 42.9382 31.8109 36.8942C45.9263 30.8534 54.8396 20.0587 51.7287 12.7881V12.7849Z" fill="white"/>
<path d="M62.9468 22.2584L61.7266 26.5261C61.5455 27.1775 61.4056 27.7685 61.2944 28.277C61.18 28.814 61.1324 29.1985 61.1324 29.4337C61.1324 29.8913 61.2626 30.2408 61.5296 30.5045C61.8092 30.7651 62.181 30.8923 62.6354 30.8923C63.3504 30.8923 64.094 30.5077 64.8662 29.742C65.6319 28.9729 66.3661 27.8735 67.0843 26.434C67.9422 24.594 68.6444 22.7796 69.1815 20.9651C69.7026 19.1729 69.9791 17.7619 69.9791 16.7578C69.9791 16.0302 69.8203 15.4391 69.512 15.0038C69.2006 14.5589 68.8033 14.3332 68.3394 14.3332C67.2748 14.3332 66.3089 14.9878 65.4223 16.2716C64.5325 17.5714 63.7127 19.5605 62.95 22.2553L62.9468 22.2584ZM55.2886 12.344C57.1825 12.2042 58.9778 12.0135 60.7001 11.8038C62.4162 11.5941 64.0686 11.3494 65.6637 11.0507L64.3196 15.6266C65.6606 13.8565 66.9381 12.5569 68.1614 11.7593C69.3626 10.9331 70.6146 10.5391 71.9271 10.5391C73.7129 10.5391 75.1016 11.0761 76.0644 12.1438C77.0431 13.2242 77.523 14.7558 77.523 16.742C77.523 18.4166 77.1924 20.1833 76.5283 22.0297C75.8546 23.8791 74.9109 25.595 73.732 27.1902C72.3433 29.0428 70.8816 30.4347 69.315 31.3562C67.742 32.2841 66.0864 32.7512 64.3196 32.7512C63.5951 32.7512 62.9183 32.6558 62.2795 32.4493C61.6503 32.2364 61.0815 31.9441 60.5635 31.5532L59.1876 36.5136C59.0923 36.8124 59.0192 37.127 58.9842 37.4415C58.9302 37.7465 58.9175 38.0548 58.9175 38.3599C58.9175 38.9573 59.0986 39.3862 59.4704 39.631C59.8422 39.8693 60.5953 40.0186 61.7266 40.0853V41.2452H48.9141V40.0345C48.9586 40.0345 49.019 40.0281 49.1015 40.0154C49.1874 39.9963 49.2541 39.99 49.2859 39.99C50.0834 39.99 50.6745 39.7961 51.0717 39.3989C51.4722 39.0018 51.882 37.9721 52.311 36.288L57.4112 16.5353C57.5002 16.2207 57.5701 15.8998 57.6241 15.5916C57.675 15.296 57.7068 15.0514 57.7068 14.8893C57.7068 14.3459 57.5353 13.9806 57.2016 13.7835C56.8583 13.561 56.2197 13.4593 55.2917 13.4593V12.3472L55.2886 12.344Z" fill="white"/>
<path d="M78.7901 1.44585C80.7062 1.2965 82.5335 1.09949 84.313 0.857979C86.0765 0.616474 87.7543 0.340014 89.3273 0L82.2919 26.4894C82.2474 26.6323 82.1935 26.8103 82.133 27.039C82.0409 27.3823 82.0059 27.6016 82.0059 27.7191C82.0059 28.0306 82.0663 28.2784 82.1935 28.45C82.3301 28.628 82.5208 28.7168 82.7686 28.7168C83.0165 28.7168 83.3087 28.5517 83.6393 28.2084C83.9666 27.878 84.5989 27.0009 85.5363 25.5805L86.6612 26.3908C85.2472 28.6374 83.8871 30.2707 82.6096 31.2845C81.3291 32.295 80.0008 32.7971 78.6121 32.7971C77.3887 32.7971 76.429 32.4761 75.7681 31.8183C75.1007 31.1637 74.7734 30.2168 74.7734 28.9934C74.7734 28.3928 75.1167 26.7976 75.7935 24.2109L75.8602 23.9503L80.5315 6.71131C80.5727 6.55561 80.63 6.31728 80.7062 6.00586C81.0018 4.87459 81.1353 4.14372 81.1353 3.82595C81.1353 3.3906 80.9827 3.07602 80.665 2.86629C80.3535 2.66291 79.8673 2.55487 79.1968 2.55487H78.7965V1.44903L78.7901 1.44585Z" fill="white"/>
<path d="M100.821 15.1612C100.821 14.5288 100.681 14.0267 100.389 13.6486C100.1 13.2736 99.7218 13.0893 99.2483 13.0893C98.5778 13.0893 97.9359 13.3975 97.3099 14.03C96.6872 14.6686 95.9721 15.7205 95.1522 17.1917C94.1958 18.949 93.4426 20.6586 92.9024 22.3428C92.3495 24.0429 92.0731 25.4824 92.0731 26.6772C92.0731 27.4048 92.2256 27.961 92.5275 28.3868C92.8325 28.7871 93.2488 28.9905 93.7605 28.9905C94.5135 28.9905 95.2857 28.5647 96.0833 27.6909C96.881 26.8234 97.6341 25.5999 98.3459 24.0238C99.0959 22.2665 99.6869 20.5569 100.138 18.9236C100.586 17.2807 100.815 16.0287 100.815 15.1643L100.821 15.1612ZM109.309 11.2748L105.556 24.3766V24.4242C104.984 26.442 104.698 27.6146 104.698 27.9514C104.698 28.2629 104.752 28.5106 104.886 28.7077C105.009 28.9015 105.168 28.9874 105.388 28.9874C105.995 28.9874 106.789 28.2914 107.739 26.8964C108.028 26.4992 108.248 26.1815 108.4 25.9622L109.49 26.7789C108.263 28.8252 107.046 30.3379 105.798 31.3007C104.552 32.2667 103.208 32.7433 101.771 32.7433C100.577 32.7433 99.6646 32.4923 99.0481 31.9935C98.4158 31.4755 98.1043 30.7415 98.1043 29.7596C98.1043 29.4671 98.1298 29.0922 98.1933 28.6505C98.2473 28.2024 98.3459 27.621 98.4761 26.9155C97.3417 28.8857 96.1056 30.3537 94.7709 31.3007C93.4426 32.2667 91.9555 32.7433 90.319 32.7433C88.6824 32.7433 87.2969 32.2445 86.315 31.2403C85.3332 30.2235 84.8438 28.8476 84.8438 27.0935C84.8438 25.0757 85.3078 22.9529 86.261 20.7031C87.1985 18.485 88.46 16.5022 90.052 14.7958C91.3073 13.4262 92.6069 12.3743 93.9574 11.6339C95.3175 10.8967 96.6172 10.5312 97.8693 10.5312C99.1212 10.5312 99.9919 10.8077 100.685 11.3575C101.374 11.9167 101.826 12.7652 102.045 13.8932L102.734 11.2717H109.299L109.309 11.2748Z" fill="white"/>
<path d="M107.121 13.0908V11.8801C108.948 11.6862 110.8 11.4447 112.688 11.1746C114.56 10.9013 115.58 10.771 115.719 10.771C116.473 10.771 117.461 13.9234 118.656 20.2374C119.142 22.7509 119.539 24.7751 119.85 26.2941C121.274 23.5485 122.246 21.5434 122.774 20.2914C123.298 19.0457 123.556 18.1179 123.556 17.5269C123.556 17.0661 123.117 16.5099 122.243 15.8744C121.373 15.2325 120.925 14.4921 120.925 13.6787C120.925 12.7349 121.226 11.9722 121.843 11.3939C122.447 10.8251 123.257 10.5391 124.264 10.5391C125.272 10.5391 126.05 10.8251 126.613 11.3939C127.169 11.9722 127.458 12.7793 127.458 13.8057C127.458 15.0991 126.803 17.1805 125.51 20.0436C124.213 22.9035 122.444 26.1225 120.2 29.7229C117.661 33.8253 115.341 36.806 113.266 38.6936C111.188 40.5779 109.183 41.5153 107.257 41.5153C105.977 41.5153 104.976 41.2452 104.245 40.7018C103.517 40.1585 103.148 39.4116 103.148 38.4615C103.148 37.5972 103.46 36.8981 104.099 36.3292C104.731 35.7669 105.529 35.4872 106.501 35.4872C107.264 35.4872 108.08 35.7763 108.954 36.3483C109.825 36.9266 110.416 37.2032 110.705 37.2032C111.229 37.2032 111.82 36.7869 112.488 35.9512C113.174 35.1059 113.517 34.3147 113.517 33.5456C113.517 32.9864 113.463 32.2714 113.358 31.4134C113.257 30.5459 113.091 29.4909 112.879 28.2357C112.437 25.5442 111.986 23.0879 111.541 20.8825C111.083 18.6803 110.676 16.9422 110.311 15.6711C109.99 14.5811 109.666 13.8693 109.336 13.5356C109.008 13.2052 108.477 13.0399 107.721 13.0399H107.661C107.442 13.0686 107.273 13.0908 107.124 13.0908H107.121Z" fill="white"/>
<path d="M136.392 26.8242C134.978 28.7213 133.589 30.1735 132.236 31.1776C130.895 32.1945 129.671 32.6966 128.559 32.6966C127.66 32.6966 126.961 32.4138 126.446 31.8703C125.928 31.3111 125.664 30.5643 125.664 29.6301C125.664 29.2996 125.702 28.9341 125.769 28.5242C125.829 28.1111 125.931 27.6503 126.068 27.1674L130.103 12.1591H125.855L126.249 10.8689C128.076 10.4908 129.69 9.66139 131.101 8.3776C132.502 7.09063 133.777 5.31429 134.898 3.03906H136.347L134.45 10.5734H138.333L137.943 12.1591H133.942L130.066 26.6526C129.976 26.983 129.91 27.2722 129.862 27.5423C129.829 27.8093 129.798 28.0508 129.798 28.2573C129.798 28.7403 129.91 29.1025 130.138 29.3632C130.348 29.6205 130.669 29.7444 131.057 29.7444C131.565 29.7444 132.159 29.4649 132.868 28.8769C133.57 28.2986 134.463 27.3517 135.534 26.0488L136.402 26.8273L136.392 26.8242Z" fill="white"/>
<path d="M140.353 21.8862C143.477 21.7433 146.108 20.9297 148.222 19.4617C150.35 17.9714 151.399 16.2998 151.399 14.4028C151.399 13.7672 151.23 13.2906 150.894 12.9696C150.566 12.6614 150.055 12.5025 149.371 12.5025C147.477 12.5025 145.72 13.3191 144.112 14.9811C142.502 16.6558 141.255 18.9533 140.356 21.8862H140.353ZM139.985 23.4752C139.838 24.0153 139.746 24.5332 139.679 25.0291C139.604 25.512 139.582 25.9601 139.582 26.3699C139.582 27.6252 139.902 28.5848 140.56 29.2458C141.208 29.9068 142.161 30.3961 143.407 30.3961C144.653 30.3961 146.045 29.8432 147.599 29.0424C149.171 28.2448 150.934 27.0405 152.88 25.4294L153.909 26.9101C151.587 28.8994 149.399 30.3739 147.345 31.3145C145.297 32.2742 143.289 32.7412 141.319 32.7412C139.349 32.7412 137.874 32.1852 136.813 31.0921C135.743 29.983 135.211 28.4355 135.211 26.4113C135.211 24.3872 135.627 22.5123 136.46 20.523C137.293 18.537 138.433 16.7575 139.87 15.2163C141.265 13.7387 142.8 12.6169 144.453 11.832C146.13 11.0566 147.84 10.6562 149.601 10.6562C151.221 10.6562 152.492 11.0185 153.429 11.7335C154.367 12.4453 154.84 13.4241 154.84 14.6729C154.84 16.9226 153.461 18.8738 150.732 20.5167C147.996 22.1532 144.411 23.1319 139.981 23.4688L139.985 23.4752Z" fill="white"/>
<path d="M170.505 23.7843L170.444 26.6251C168.976 28.6716 167.381 30.2001 165.642 31.2169C163.908 32.2274 162.014 32.7295 159.96 32.7295C157.715 32.7295 155.878 32.0145 154.466 30.5687C153.063 29.145 152.359 27.2447 152.359 24.8901C152.359 23.1583 152.756 21.3915 153.554 19.5929C154.339 17.7816 155.446 16.1768 156.853 14.7501C158.143 13.4599 159.589 12.4526 161.19 11.7598C162.779 11.0576 164.403 10.6953 166.078 10.6953C167.832 10.6953 169.227 11.083 170.266 11.8456C171.303 12.6083 171.827 13.6219 171.827 14.8994C171.827 15.6557 171.559 16.3135 171.016 16.8536C170.479 17.3971 169.843 17.6672 169.1 17.6672C168.493 17.6672 168.003 17.4828 167.626 17.1016C167.25 16.7234 167.063 16.2341 167.063 15.6207C167.063 15.1949 167.21 14.7056 167.517 14.1367C167.815 13.5775 167.959 13.228 167.959 13.0881C167.959 12.8244 167.813 12.6147 167.501 12.4494C167.19 12.2842 166.78 12.2047 166.25 12.2047C165.169 12.2047 164.075 12.5193 162.948 13.1675C161.83 13.8254 160.85 14.7119 160.008 15.8368C158.985 17.2 158.193 18.6555 157.638 20.1871C157.091 21.7188 156.821 23.206 156.821 24.6773C156.821 26.3391 157.259 27.6706 158.147 28.6399C159.046 29.6122 160.25 30.2699 161.773 30.2699C162.973 30.2699 164.156 29.733 165.315 29.0211C166.482 28.2966 168.416 26.8507 170.505 23.7811V23.7843Z" fill="white"/>
<path d="M167.867 32.7477L175.814 5.35909C175.861 5.19386 175.89 5.02226 175.913 4.84113C175.942 4.67271 175.951 4.49793 175.951 4.35812C175.951 3.86876 175.821 3.53509 175.573 3.34443C175.321 3.17919 174.6 3.08703 173.421 3.08703H171.612L171.893 1.8382C173.351 1.781 174.714 1.61893 175.986 1.38061C177.244 1.12957 178.445 0.805447 179.561 0.382812H180.997L175.497 19.2996C178.312 16.5669 180.908 14.4537 183.269 12.9316C185.623 11.4349 187.504 10.6754 188.909 10.6754C189.65 10.6754 190.187 10.8438 190.54 11.1775C190.886 11.5238 191.073 12.0482 191.073 12.7504C191.073 12.9697 191.036 13.2302 190.968 13.5448C190.905 13.8721 190.819 14.2249 190.718 14.6094L186.704 27.4949C186.634 27.7428 186.568 28.0225 186.517 28.3212C186.463 28.6072 186.434 28.9091 186.434 29.1983C186.434 29.3634 186.517 29.5065 186.66 29.6399C186.803 29.767 186.98 29.9926 187.171 29.9926C187.561 29.9926 188.112 29.5795 188.802 29.0742C189.494 28.5691 190.218 27.8731 190.988 26.9929L191.808 27.6602C190.425 29.2904 189.094 30.5455 187.816 31.4035C186.533 32.2679 185.347 32.7032 184.27 32.7032C183.564 32.7032 183.008 32.538 182.598 32.2138C182.185 31.8834 181.988 31.4448 181.988 30.8697C181.988 30.6695 182.004 30.4503 182.052 30.2183C182.093 29.9895 182.172 29.7385 182.271 29.462L186.395 16.1347C186.472 15.8423 186.52 15.6198 186.548 15.4674C186.57 15.3212 186.581 15.175 186.581 15.0542C186.581 14.7142 186.482 14.4537 186.275 14.2726C186.077 14.1041 185.789 14.0152 185.411 14.0152C184.823 14.0152 183.959 14.3615 182.817 15.0669C181.668 15.7724 180.355 16.7766 178.845 18.0794C177.494 19.2298 176.497 20.2116 175.872 21.0252C175.245 21.8418 174.787 22.6839 174.502 23.5577L171.766 32.7477C171.454 32.7032 170.349 32.6683 170.027 32.6492C169.707 32.627 170.174 32.627 169.843 32.627C169.512 32.627 169.172 32.627 168.848 32.6492C168.537 32.6683 168.21 32.7032 167.872 32.7477H167.867Z" fill="white"/>
</g>
</g>
</svg>
