<?xml version="1.0" encoding="utf-8"?>
<!-- Generator: Adobe Illustrator 27.7.0, SVG Export Plug-In . SVG Version: 6.00 Build 0)  -->
<svg version="1.1" id="_Layer_" xmlns="http://www.w3.org/2000/svg" xmlns:xlink="http://www.w3.org/1999/xlink" x="0px" y="0px"
	 viewBox="0 0 794.1 364.2" style="enable-background:new 0 0 794.1 364.2;" xml:space="preserve">
<style type="text/css">
	.st0{fill:#F19021;}
	.st1{fill:#FFFFFF;}
</style>
<g>
	<path class="st0" d="M683,141.9c-39.4,2.4-21.7,53.8,21.9,51.1C747.5,190.3,725,139.3,683,141.9z"/>
	<path class="st0" d="M666.4,110.2c-70.1,0-127,56.9-127,127s56.9,127,127,127s127-56.9,127-127c0,0,0,0,0,0
		C793.4,167,736.5,110.2,666.4,110.2z M666.4,350.9c-62.8,0-113.7-50.9-113.7-113.6s50.9-113.7,113.6-113.7S780,174.4,780,237.2
		c0,0,0,0,0,0C780,300,729.1,350.9,666.4,350.9z M662.5,21.5c-30.2,22.8-24.9,57.7-24.9,57.7s-19-49.2-43.6-79.3
		c-3.3,38.7,8.8,90,8.8,90s-15.4-31.8-53.2-33.6c31.3,18,43.5,50.4,46.2,59.1c18.7-11.5,40-18,61.9-18.7
		C655.4,88.7,646.6,54.6,662.5,21.5z"/>
	<path class="st1" d="M11.1,249.6v26.6H0v-68.5h23.3c7.9,0,13.8,1.9,17.8,5.6s6,8.9,6,15.4c0,6.5-2,11.6-6.1,15.3
		c-4.1,3.7-10,5.6-17.6,5.6L11.1,249.6z M35.8,228.8c0-3.9-1.1-6.8-3.2-8.9c-2.2-2-5.6-3.1-10.4-3.1H11.1v23.8h11.1
		C31.2,240.6,35.8,236.7,35.8,228.8L35.8,228.8z M92.7,276.2l-17.1-27.4h-7.9v27.4H56.7v-68.5h24.2c7.8,0,13.8,1.9,17.8,5.7
		c4,3.8,6.1,8.9,6.1,15.1c0,5.3-1.5,9.7-4.5,13.2c-3,3.5-7.3,5.7-13,6.6l18,27.8H92.7z M67.8,241H80c8.9,0,13.4-3.9,13.4-11.8
		c0-3.7-1.1-6.7-3.2-8.8c-2.2-2.1-5.5-3.1-10.1-3.1H67.8V241z M155.6,261.4h-28.9l-5.2,14.8h-11.8l25.2-67.4h12.7l25.1,67.4h-11.8
		L155.6,261.4z M152.5,252.8l-11.4-32l-11.4,32H152.5z M228.5,213.2c5.4,4,9.2,9.8,10.8,16.4h-11.6c-1.5-3.6-4-6.7-7.3-8.8
		c-3.6-2.3-7.8-3.4-12.1-3.3c-4-0.1-8,1-11.5,3c-3.4,2-6.2,5-7.9,8.5c-2,4.1-2.9,8.5-2.8,13c-0.1,4.7,0.9,9.3,2.9,13.5
		c1.8,3.6,4.7,6.6,8.2,8.6c3.8,2,8,3.1,12.3,3c5.4,0.1,10.6-1.8,14.6-5.4c4.1-3.5,6.5-8.4,7.4-14.5h-25.1v-8.1h34.4v10.6
		c-0.7,4.9-2.6,9.6-5.4,13.7c-2.9,4.1-6.7,7.5-11.1,9.9c-4.9,2.5-10.4,3.8-15.9,3.7c-6.2,0.1-12.3-1.4-17.7-4.5
		c-5-2.9-9.2-7.2-11.8-12.4c-5.6-11.4-5.6-24.8,0-36.2c2.7-5.1,6.8-9.4,11.8-12.3c5.4-3,11.5-4.5,17.6-4.4
		C216.3,207.2,223.1,209.2,228.5,213.2L228.5,213.2z M318.7,208.8v67.4h-11.2v-50.5l-19.5,50.5h-9.7l-19.6-50.5v50.5h-11.1v-67.4
		h13.4l22.3,53.8l21.9-53.8H318.7z M372.9,261.4H344l-5.2,14.8h-11.9l25.2-67.4h12.7l25.1,67.4h-11.8L372.9,261.4z M369.8,252.8
		l-11.4-32l-11.4,32H369.8z M437.3,207.7v8.9h-19.1v59.6H407v-59.6h-19v-8.9H437.3z M454.2,207.7v68.5h-11v-68.5L454.2,207.7z
		 M516.8,213.4c5.6,4.3,9.6,10.5,11.2,17.4h-11.7c-1.5-4-4.2-7.4-7.7-9.9c-3.8-2.5-8.4-3.8-13-3.6c-3.8-0.1-7.6,1-10.9,3
		c-3.3,2.1-5.9,5.1-7.6,8.6c-3.7,8.3-3.7,17.7,0,26c1.7,3.5,4.3,6.5,7.6,8.6c3.3,2,7.1,3.1,10.9,3c4.6,0.2,9.1-1.1,13-3.6
		c3.5-2.4,6.2-5.8,7.7-9.8h11.7c-1.7,6.9-5.6,13-11.2,17.3c-5.6,4.2-12.5,6.4-21,6.4c-6,0.1-12-1.4-17.2-4.4c-5-2.9-9-7.2-11.5-12.3
		c-5.4-11.4-5.4-24.7,0-36.2c2.6-5.1,6.6-9.4,11.5-12.4c5.2-3,11.1-4.6,17.2-4.5C504.3,207,511.2,209.2,516.8,213.4L516.8,213.4z
		 M580.2,249.6v26.6h-11v-68.5h23.3c7.9,0,13.8,1.9,17.8,5.6s6,8.9,6,15.4c0,6.5-2,11.6-6.1,15.3c-4.1,3.7-10,5.6-17.7,5.6
		L580.2,249.6z M605,228.8c0-3.9-1.1-6.8-3.2-8.9c-2.2-2-5.6-3.1-10.4-3.1h-11.1v23.8h11.1C600.4,240.6,605,236.7,605,228.8
		L605,228.8z M635.2,267.6h23.7v8.6h-34.7v-68.5h11.1V267.6z M709.5,261.4h-28.9l-5.2,14.8h-11.8l25.2-67.4h12.7l25.1,67.4h-11.8
		L709.5,261.4z M706.4,252.8l-11.3-32l-11.3,32H706.4z M771,207.7l-22.8,43.6v24.9h-11.1v-24.9l-22.9-43.6H727l15.7,31.7l15.7-31.7
		H771z"/>
</g>
</svg>
